<?xml version="1.0" encoding="UTF-8" standalone="no"?>
<svg
   xmlns:dc="http://purl.org/dc/elements/1.1/"
   xmlns:cc="http://creativecommons.org/ns#"
   xmlns:rdf="http://www.w3.org/1999/02/22-rdf-syntax-ns#"
   xmlns:svg="http://www.w3.org/2000/svg"
   xmlns="http://www.w3.org/2000/svg"
   xmlns:sodipodi="http://sodipodi.sourceforge.net/DTD/sodipodi-0.dtd"
   xmlns:inkscape="http://www.inkscape.org/namespaces/inkscape"
   width="1024.0px"
   height="1024.0px"
   viewBox="0 0 1024.0 1024.0"
   version="1.1"
   id="SVGRoot"
   sodipodi:docname="lamp.off.svg"
   inkscape:version="1.0.1 (3bc2e813f5, 2020-09-07)">
  <defs
     id="defs4539" />
  <sodipodi:namedview
     id="base"
     pagecolor="#ffffff"
     bordercolor="#666666"
     borderopacity="1.0"
     inkscape:pageopacity="0.0"
     inkscape:pageshadow="2"
     inkscape:zoom="0.35"
     inkscape:cx="397.14286"
     inkscape:cy="545.71429"
     inkscape:document-units="px"
     inkscape:current-layer="layer1"
     inkscape:document-rotation="0"
     showgrid="true"
     inkscape:window-width="1920"
     inkscape:window-height="1018"
     inkscape:window-x="0"
     inkscape:window-y="36"
     inkscape:window-maximized="1">
    <inkscape:grid
       type="xygrid"
       id="grid5109" />
  </sodipodi:namedview>
  <metadata
     id="metadata4542">
    <rdf:RDF>
      <cc:Work
         rdf:about="">
        <dc:format>image/svg+xml</dc:format>
        <dc:type
           rdf:resource="http://purl.org/dc/dcmitype/StillImage" />
        <dc:title></dc:title>
      </cc:Work>
    </rdf:RDF>
  </metadata>
  <g
     inkscape:label="Layer 1"
     inkscape:groupmode="layer"
     id="layer1">
    <g
       id="bulb-bulb"
       transform="matrix(0.67405982,0,0,0.64358081,300,280)">
      <path
         d="M 308.8193,0 C 138.5303,0 0,138.604 0,308.918 0,375.5938 20.9599,439.1631 59.8701,491.5122 l 14.3018,21.2061 c 44.5083,65.27 105.4633,154.7798 102.0361,217.4116 l -1.2334,22.6856 245.0039,-0.1485 21.6504,-0.3945 -0.1973,-21.6494 c 0,-0.6906 0.542,-71.8789 104.9199,-222.6885 l 9.5186,-13.8828 c 9.1973,-12.1069 17.5811,-25.1758 24.7568,-38.5405 4.6114,-8.4087 8.7285,-16.8912 12.4522,-25.9156 16.2744,-38.1709 24.5107,-78.7832 24.5107,-120.6777 C 617.5898,138.604 479.0595,0 308.8193,0 Z m 244.6338,412.9756 c -3.1562,7.7183 -6.6328,14.8198 -10.5283,21.9707 -6.3623,11.6143 -13.5625,22.8335 -21.8233,33.9297 l -10.1337,14.6963 C 428.9785,602.0547 406.5644,675.3887 400.5976,709.7129 l -182.101,0.1231 C 210.9267,637.045 153.0781,552.1709 109.6797,488.4795 L 95.1806,467.0762 C 61.0537,420.9649 42.9302,366.3472 42.9302,308.918 c 0,-146.5928 119.3208,-265.8398 265.8891,-265.8398 146.544,0 265.8154,119.247 265.8154,265.8398 0,36.0259 -7.1015,70.9668 -21.1816,104.0576 z"
         fill="#1a1a1a"
         id="path2" />
      <rect
         fill="#1a1a1a"
         height="42.954102"
         width="127.2364"
         x="245.1767"
         y="967.0459"
         id="rect4" />
      <rect
         fill="#1a1a1a"
         height="43.003899"
         width="257.80179"
         x="179.9062"
         y="882.22168"
         id="rect6" />
      <path
         d="m 390.6845,155.273 c -10.3564,-3.8218 -22.4638,1.9233 -26.2119,12.1567 -3.8955,10.6275 1.5537,22.3399 12.1573,26.2114 25.792,9.3702 37.4804,34.7437 42.8066,54.2974 10.4053,38.541 3.2549,85.2681 -10.1592,101.3452 -7.1513,8.606 -5.9678,21.5269 2.7119,28.7759 3.6495,3.0576 8.3096,4.6855 13.0694,4.6855 1.4795,0 2.9336,-0.1728 4.3886,-0.4443 4.4385,-1.0107 8.4336,-3.4272 11.294,-6.8794 23.499,-28.2827 31.4141,-88.9419 18.1484,-138.1846 -10.998,-40.8588 -35.2373,-69.9555 -68.2051,-81.9638 z"
         fill="#1a1a1a"
         id="path8" />
      <rect
         fill="#1a1a1a"
         height="43.003899"
         width="257.80179"
         x="179.9062"
         y="797.39752"
         id="rect10" />
    </g>
  </g>
</svg>
